<?xml version="1.0" encoding="UTF-8"?>
<svg xmlns="http://www.w3.org/2000/svg" xmlns:xlink="http://www.w3.org/1999/xlink" width="250" height="157" viewBox="0 0 250 157">
  <defs>
    <path id="a" d="M0 .76h249.698v104.172H0z"></path>
  </defs>
  <g fill="none" fill-rule="evenodd">
    <g transform="translate(0 .202)">
      <mask id="b" fill="#fff">
        <use xlink:href="#a"></use>
      </mask>
      <path fill="#000" d="M63.921 51.345V90.22c0 .557-.037 1.25.39 1.73 2.9 3.247 17.83 12.982 18.514 12.982 1.288 0 7.628-3.248 9.171-4.047a.58.58 0 0 0 .332-.533V87.746c0-.323-.269-.53-.469-.634-1.124-.587-3.636-2.05-5.387-3.657-1.088-1-1.537-1.57-1.537-3.025V43.06c0-1.425-1.187-1.319-2.155-.984-.655.226-15.231 6.668-18.088 7.928-.608.27-.77.675-.77 1.342M21.516 34.897c0-.508-.288-.817-.714-.64-2.082.87-7.208 3.69-11.136 6.861C5.706 44.313 1.782 50.526 1 56.738.02 64.52-1.1 76.643 2.237 87.183c2.698 8.52 24.308 17.749 26.136 17.749 1.055 0 7.718-4.917 13.72-9.684l.106-.078c4.754-4.208 8.611-7.966 9.162-8.723.55-.758-.449-1.791-1.288-2.033-.269-.08-.585.01-.969.23-.806.464-3.42 2.822-6.887 2.822-2.245 0-2.684-.128-4.134-.511-5.14-1.358-11.212-4.891-12.938-6.873-1.24-1.42-3.65-3.64-3.65-12.559 0-2.559.022-17.394.02-21.626l.002-11m31.55 17.432c-.525-1.645-6.404-12.39-7.795-14.966-1.102-2.039-4.74-7.922-6.343-9.541-.424-.427-.516-.585-1.287-.321-2.467.844-10.793 4.499-12.495 5.188-.304.122-.304.43-.304.43v7.18c0 .278.055.442.153.577.747 1.022 4.014 5.54 5.157 7.918 1.432 2.976 4.699 8.814 2.77 11.051-2.117 2.457-6.82 4.696-7.888 5.245-.23.117-.2.252-.192.424 0 0-.018 2.999.012 3.14.062.302.162.418.545.245 3.07-1.39 20.804-10.945 25.594-13.819 2.43-1.456 2.395-1.74 2.073-2.751m65.675 25.517V55.169c0-18.642-6.842-26.263-19.625-32.195-12.782-5.93-23.758-8.144-23.758-15.129 0-5.57 8.558-3.907 9.292-3.88.92.034 1.345-1.666 1.184-2.042-.159-.372-.628-.532-1.175-.726-.549-.197-2.874-.782-6.475-.152C71.07 2.291 61.37 8.451 63.782 20.797 66.194 33.142 82.113 36.29 89.95 39.556c7.84 3.269 7.477 11.61 7.477 12.59v30.725c0 2.783-.665 3.788-1.404 4.188-.231.124-.406.16-.406.689V99.03c0 .354.334.41.643.258 2.712-1.32 13.566-6.932 15.55-8.235 6.347-4.17 6.931-11.68 6.931-13.208m32.317-42.949c0-.508-.292-.817-.716-.64-2.083.87-7.207 3.69-11.136 6.861-3.963 3.195-7.885 9.408-8.668 15.62-.98 7.782-2.098 19.905 1.24 30.445 2.696 8.52 24.304 17.749 26.131 17.749 1.057 0 7.719-4.917 13.723-9.684l.106-.078c4.752-4.208 8.61-7.966 9.16-8.723.553-.758-.447-1.791-1.287-2.033-.27-.08-.586.01-.97.23-.804.464-3.418 2.822-6.885 2.822-2.246 0-2.685-.128-4.134-.511-5.142-1.358-11.213-4.891-12.94-6.873-1.238-1.42-3.648-3.64-3.648-12.559 0-2.559.024-17.394.022-21.626-.002-4.897.002-9.587.002-11m31.546 17.432c-.524-1.645-6.403-12.39-7.793-14.966-1.102-2.039-4.74-7.922-6.344-9.541-.425-.427-.517-.585-1.286-.321-2.467.844-10.793 4.499-12.497 5.188-.302.122-.302.43-.302.43v7.18c0 .278.054.442.153.577.747 1.022 4.012 5.54 5.157 7.918 1.431 2.976 4.698 8.814 2.769 11.051-2.116 2.457-6.819 4.696-7.887 5.245-.23.117-.2.252-.192.424 0 0-.02 2.999.01 3.14.064.302.162.418.546.245 3.071-1.39 20.802-10.945 25.595-13.819 2.43-1.456 2.394-1.74 2.07-2.751m15.069 37.828c0-.038-.004-.077-.004-.11 0 0 .004 1.605.004.11M249.4 45.2c-.717-1.598-4.016-7.561-5.341-9.69-1.106-1.778-4.264-7.173-5.542-8.045-.163-.112-.528-.15-.74.02-2.066 1.705-15.407 13.126-15.877 13.484-.61.456-.867.252-1.295-.293-.535-.69-4.933-5.486-6.877-7.723-1.765-2.028-4.514-5.574-6.016-5.574-1.498 0-5.675 3.621-9.709 7.117-3.484 3.027-9.777 8.972-10.436 9.693-.547.604.85 2.822 1.734 2.238.684-.453 2.196-1.772 4.388-1.772.943 0 3.344.333 3.773 3.45.114.835.25 5.907.25 7.529 0 1.232-.04 24.465-.04 34.247v.276c-.002.466-.01 1.011.335 1.4 2.53 2.837 17.816 13.375 19.098 13.375 1.283 0 5.554-4.26 11.568-9.583 4.75-4.208 8.673-8.068 9.224-8.825.55-.756-.449-1.791-1.288-2.034-.269-.078-.582.01-.969.233-.806.462-3.31 2.97-7.146 2.442-5.541-.76-9.326-3.728-9.326-10.29v-24.19c0-1.198-.004-3.202.273-3.897.408-1.031 4.316-3.737 4.684-3.967.71-.445 1.289-.148 1.716.407.798 1.031 8.454 14.015 9.129 15.08.392.624.705 1.34 1.731.675 1.026-.665 11.75-12.632 12.24-13.208.536-.628 1.126-1.089.46-2.575" mask="url(#b)"></path>
    </g>
    <path fill="#000" d="M195.599 149.35v1.08h3.563c-.123 2.87-1.71 4.513-4.351 4.513-2.952 0-4.936-2.403-4.936-5.98 0-3.565 1.975-5.96 4.914-5.96 1.969 0 3.344.982 3.977 2.838l.008.025h1.21l-.012-.045c-.606-2.484-2.543-3.968-5.183-3.968-1.694 0-3.241.68-4.353 1.911-1.175 1.301-1.795 3.098-1.795 5.198 0 4.184 2.538 7.107 6.17 7.107 1.637 0 3.025-.557 4.014-1.614.984-1.05 1.508-2.525 1.508-4.263v-.842h-4.734zM56.505 148.187h-8.599v-6.13h-1.21v13.812h1.21v-6.556h8.6v6.556h1.211v-13.813h-1.212zM145.405 140.45c.415 0 .753-.35.753-.777 0-.44-.322-.773-.753-.773a.757.757 0 0 0-.773.773c0 .435.34.778.773.778M76.793 148.962c0 1.73-.467 3.217-1.35 4.302-.884 1.082-2.1 1.657-3.517 1.657-2.854 0-4.846-2.45-4.846-5.96 0-3.507 1.992-5.957 4.846-5.957 1.417 0 2.633.573 3.518 1.657.882 1.083 1.349 2.57 1.349 4.3m-4.867-7.106c-1.708 0-3.254.698-4.354 1.972-1.114 1.28-1.725 3.107-1.725 5.135 0 2.027.611 3.851 1.725 5.136 1.1 1.274 2.646 1.97 4.354 1.97 1.715 0 3.269-.696 4.37-1.97 1.116-1.283 1.73-3.107 1.73-5.136 0-2.028-.614-3.854-1.73-5.135-1.101-1.274-2.655-1.972-4.37-1.972M148.17 140.45a.79.79 0 0 0 .775-.777.766.766 0 0 0-.775-.773c-.427 0-.751.333-.751.773 0 .428.337.778.751.778M151.655 148.962c0 1.73-.466 3.217-1.349 4.302-.882 1.082-2.1 1.657-3.518 1.657-2.853 0-4.845-2.45-4.845-5.96 0-3.507 1.992-5.957 4.845-5.957 1.418 0 2.636.573 3.518 1.657.883 1.083 1.35 2.57 1.35 4.3m-.495 5.137c1.114-1.283 1.728-3.107 1.728-5.136 0-2.028-.614-3.854-1.728-5.135-1.104-1.274-2.655-1.972-4.373-1.972-1.708 0-3.251.698-4.353 1.972-1.116 1.28-1.726 3.107-1.726 5.135 0 2.027.61 3.851 1.726 5.136 1.102 1.274 2.645 1.97 4.353 1.97 1.718 0 3.27-.696 4.373-1.97M170.116 153.43l-7.96-11.358-.01-.016h-1.148v13.813h1.166v-11.847l8.293 11.829.01.018h.816v-13.813h-1.167zM96.172 152.104l.012-.045h-1.189l-.01.023c-.606 1.833-1.996 2.84-3.91 2.84-2.884 0-4.822-2.395-4.822-5.961 0-3.562 1.938-5.958 4.822-5.958 1.914 0 3.304 1.008 3.91 2.836l.01.028h1.189l-.012-.045c-.583-2.484-2.489-3.968-5.097-3.968-1.676 0-3.204.683-4.298 1.92-1.151 1.3-1.757 3.093-1.757 5.187 0 2.096.606 3.891 1.757 5.19 1.094 1.238 2.622 1.919 4.298 1.919 2.57 0 4.522-1.52 5.097-3.966M133.24 155.87h1.522l-6.492-7.51 6.216-6.24.065-.065h-1.58l-7.08 7.152v-7.152h-1.21v13.814h1.21v-5.146l1.5-1.528 5.836 6.66zM180.415 155.869h1.212v-13.815h-1.212zM114.113 155.87h1.211v-13.815h-1.211v6.133h-8.6v-6.133h-1.21v13.814h1.21v-6.556h8.6z"></path>
  </g>
</svg>
