<svg class="social__icon" xmlns="http://www.w3.org/2000/svg" width="9" height="16" viewBox="0 0 9 16"><g><g><path class="fill" fill="#fff" d="M6.045 5.827h2.213L7.972 8.2H6.045a.321.321 0 0 0-.328.314v6.726H2.924V8.483a.321.321 0 0 0-.328-.314H.936V5.827h1.747c.18 0 .328-.14.328-.314V3.67a.302.302 0 0 0-.005-.054c-.035-.19-.158-1.18.802-2.026.898-.79 2.04-.852 2.37-.852a1.754 1.754 0 0 1 .094.002h1.995v2.167H6.84c-.703 0-1.123.385-1.123 1.03v1.576c0 .173.147.314.328.314zm.795-2.292h1.5c.322 0 .583-.25.583-.558V.67A.572.572 0 0 0 8.34.112H6.28L6.177.11c-.388 0-1.74.073-2.813 1.018-1.17 1.03-1.059 2.264-1.01 2.568v1.503H.865a.572.572 0 0 0-.584.558v2.482c0 .307.262.558.583.558h1.405v6.514c0 .307.262.558.583.558H5.79c.322 0 .583-.25.583-.558V8.829h1.665a.574.574 0 0 0 .579-.494l.302-2.514a.543.543 0 0 0-.144-.435.596.596 0 0 0-.435-.187H6.373V3.937c0-.26.074-.402.467-.402z"/></g><g><path class="fill" fill="#fff" d="M3.588 10.68a.321.321 0 0 0-.328.314v.157c0 .173.147.314.328.314.181 0 .328-.14.328-.314v-.157a.321.321 0 0 0-.328-.314z"/></g><g><path class="fill" fill="#fff" d="M3.588 11.85a.321.321 0 0 0-.328.314v2.386c0 .173.147.314.328.314.181 0 .328-.14.328-.314v-2.386a.321.321 0 0 0-.328-.314z"/></g></g></svg>