<svg class="social__icon" xmlns="http://www.w3.org/2000/svg" width="16" height="16" viewBox="0 0 16 16"><g><g><g><g><path class="fill" fill="#fff" d="M15.25 11.21a4.064 4.064 0 0 1-4.059 4.06H4.819a4.064 4.064 0 0 1-4.06-4.06V4.8A4.064 4.064 0 0 1 4.82.739h6.372a4.064 4.064 0 0 1 4.06 4.06zM11.192.11H4.819A4.694 4.694 0 0 0 .13 4.799v6.411a4.694 4.694 0 0 0 4.689 4.69h6.372a4.694 4.694 0 0 0 4.689-4.69V4.8A4.694 4.694 0 0 0 11.191.11z"/></g><g><path class="fill" fill="#fff" d="M13.446 11.195a2.264 2.264 0 0 1-2.263 2.26H4.811a2.264 2.264 0 0 1-2.262-2.26V4.789a2.264 2.264 0 0 1 2.262-2.26h6.372a2.264 2.264 0 0 1 2.263 2.26zM11.183 1.9H4.811A2.895 2.895 0 0 0 1.92 4.791v6.412a2.895 2.895 0 0 0 2.891 2.891h6.372a2.895 2.895 0 0 0 2.892-2.891V4.79A2.895 2.895 0 0 0 11.183 1.9z"/></g></g><g><g><path class="fill" fill="#fff" d="M7.995 11.431A3.44 3.44 0 0 1 4.56 7.995 3.44 3.44 0 0 1 7.995 4.56a3.44 3.44 0 0 1 3.436 3.436 3.44 3.44 0 0 1-3.436 3.436zm0-7.501A4.07 4.07 0 0 0 3.93 7.995a4.07 4.07 0 0 0 4.065 4.065 4.07 4.07 0 0 0 4.065-4.065A4.07 4.07 0 0 0 7.995 3.93z"/></g><g><path class="fill" fill="#fff" d="M7.997 9.674a1.68 1.68 0 0 1-1.678-1.677 1.68 1.68 0 0 1 1.678-1.678 1.68 1.68 0 0 1 1.677 1.678 1.68 1.68 0 0 1-1.677 1.677zm.005-3.984A2.314 2.314 0 0 0 5.69 8.002a2.314 2.314 0 0 0 2.312 2.311 2.314 2.314 0 0 0 2.311-2.311A2.314 2.314 0 0 0 8.002 5.69z"/></g></g><g><path class="fill" fill="#fff" d="M11.832 4.494a.343.343 0 1 1 0-.686.343.343 0 0 1 0 .686zm.005-1.314a.978.978 0 0 0 0 1.953.978.978 0 0 0 0-1.953z"/></g><g><path class="fill" fill="#fff" d="M7.501 14.38H4.545a.315.315 0 1 0 0 .629H7.5a.315.315 0 1 0 0-.629z"/></g><g><path class="fill" fill="#fff" d="M8.693 14.38h-.188a.315.315 0 0 0 0 .629h.188a.315.315 0 1 0 0-.629z"/></g></g></g></svg>