<svg class="social__icon" xmlns="http://www.w3.org/2000/svg" width="16" height="16" viewBox="0 0 16 16"><g><g><g><path class="fill" fill="#fff" d="M3.883 15.246H.979V5.61h2.904zm.07-10.266H.909a.56.56 0 0 0-.559.559v9.777c0 .309.25.56.559.56h3.044a.56.56 0 0 0 .559-.56V5.54a.56.56 0 0 0-.56-.559z"/></g><g><path class="fill" fill="#fff" d="M2.428 4.133a1.693 1.693 0 0 1 0-3.384c.45 0 .873.176 1.192.496a1.692 1.692 0 0 1-1.192 2.888zM4.074.8A2.306 2.306 0 0 0 2.433.12 2.324 2.324 0 0 0 .11 2.44a2.325 2.325 0 0 0 2.323 2.322 2.324 2.324 0 0 0 2.321-2.321c0-.62-.242-1.202-.68-1.64z"/></g><g><path class="fill" fill="#fff" d="M12.37 15.25v-4.684c0-.637-.018-1.301-.229-1.797-.245-.575-.723-.867-1.421-.867-1.67 0-1.894 1.304-1.894 2.58v4.767H5.929V5.612h2.775v.565a.315.315 0 0 0 .546.213c.35-.381 1.132-1.02 2.442-1.02 3.143 0 3.576 2.204 3.576 4.586v5.294zm2.824-8.813C14.53 5.31 13.352 4.74 11.692 4.74c-1.069 0-1.846.365-2.363.741a.56.56 0 0 0-.555-.498H5.859a.56.56 0 0 0-.559.559v9.777c0 .309.25.56.559.56h3.037a.56.56 0 0 0 .559-.56v-4.837c0-1.64.444-1.95 1.265-1.95.801 0 1.02.437 1.02 2.034v4.754c0 .308.252.559.56.559h3.038a.56.56 0 0 0 .559-.56V9.957c0-1.083-.08-2.462-.703-3.52z"/></g><g><path class="fill" fill="#fff" d="M1.615 11.33a.315.315 0 0 0-.315.315v2.925a.315.315 0 1 0 .63 0v-2.925a.315.315 0 0 0-.315-.315z"/></g><g><path class="fill" fill="#fff" d="M1.615 10.01a.315.315 0 0 0-.315.315v.283a.315.315 0 1 0 .63 0v-.283a.315.315 0 0 0-.315-.315z"/></g></g></g></svg>